PathFileType	4	(X/Y/Z)	/Users/niels/Desktop/University/Third Semester/Perception and Action/Exam/Gymnastics Motion Tracking/Code for Gym Tracking/Analyzed Data/Start Salto/stsalto_bad_id9_1_Sports2D/stsalto_bad_id9_1_Sports2D_px_person00.trc
DataRate	CameraRate	NumFrames	NumMarkers	Units	OrigDataRate	OrigDataStartFrame	OrigNumFrames
29.83050847457627	29.83050847457627	9	22	m	29.83050847457627	22	177
Frame#	Time	Hip			RHip			RKnee			RAnkle			RBigToe			RSmallToe			RHeel			LHip			LKnee			LAnkle			LBigToe			LSmallToe			LHeel			Neck			Head			Nose			RShoulder			RElbow			RWrist			LShoulder			LElbow			LWrist		
		X1	Y1	Z1	X2	Y2	Z2	X3	Y3	Z3	X4	Y4	Z4	X5	Y5	Z5	X6	Y6	Z6	X7	Y7	Z7	X8	Y8	Z8	X9	Y9	Z9	X10	Y10	Z10	X11	Y11	Z11	X12	Y12	Z12	X13	Y13	Z13	X14	Y14	Z14	X15	Y15	Z15	X16	Y16	Z16	X17	Y17	Z17	X18	Y18	Z18	X19	Y19	Z19	X20	Y20	Z20	X21	Y21	Z21	X22	Y22	Z22
22	0.7375	0.12038264736229679	-0.52810562163923	0.0	0.0893827803116548	-0.5324908403437841	0.0	0.1906741129597183	-0.6261160062682238	0.0	0.12223621350677778	-0.7679321907829909	0.0	0.1660190753630189	-0.8229216998221196	0.0	0.14266474171317087	-0.8219724721523591	0.0	0.10047509456360043	-0.7844803093233514	0.0	0.14935645198061406	-0.5343534362594882	0.0	0.2111955914825626	-0.6510555386384592	0.0	0.12168163242461415	-0.787454008785685	0.0	0.14524331815020428	-0.8406825965457471	0.0	0.14840092314238135	-0.8346200162140543	0.0	0.09760908396663114	-0.8013696236745202	0.0	0.11961181809843983	-0.33414626233607747	0.0	0.1400638965588823	-0.25542953968405796	0.0	0.1674909837035995	-0.29926377153973965	0.0	0.06177382315078656	-0.34854065633217	0.0	0.03196780008080989	-0.4429631146874564	0.0	0.11522678353595919	-0.4980202528047095	0.0	0.16911763421083892	-0.36614736613651155	0.0	0.19318276240563992	-0.45314961181596924	0.0	0.24648471292470472	-0.5196715663790263	0.0
23	0.7710227272727272	0.134239223541133	-0.5228102067689198	0.0	0.10391329323662012	-0.527122498996334	0.0	0.21039469162758972	-0.6171805110205817	0.0	0.1600580921767804	-0.7666789317935032	0.0	0.20859685840371994	-0.8168440892916188	0.0	0.18495807358560074	-0.8179949281538695	0.0	0.1393789830738497	-0.786318328691539	0.0	0.1630567324726209	-0.5288635269749156	0.0	0.2345360345462168	-0.6413819436710491	0.0	0.13515607408312985	-0.775785622305062	0.0	0.15705048303632946	-0.8349353225916937	0.0	0.15992681240282872	-0.8278306731279376	0.0	0.11006947955931058	-0.7876216081310923	0.0	0.14039982515312316	-0.33146862935314725	0.0	0.16228563793303258	-0.25229962208262596	0.0	0.18897158759685215	-0.2971139094123911	0.0	0.08168290230759112	-0.34418810869367894	0.0	0.050674964303522634	-0.4381057785757675	0.0	0.13697648793093614	-0.4950211449635143	0.0	0.18906351503336652	-0.3644043754084299	0.0	0.2117228879147065	-0.45075114213818646	0.0	0.2651608070819745	-0.5158372582701986	0.0
24	0.8045454545454546	0.1474765598793647	-0.5180463077793203	0.0	0.1176446771868239	-0.5226009378728079	0.0	0.2280106539885185	-0.6103981707201644	0.0	0.196827738423463	-0.765066022024119	0.0	0.24959277531388813	-0.8101327324980638	0.0	0.22601675661273618	-0.8130003593128159	0.0	0.17832791880454826	-0.787157693060356	0.0	0.17656106840647462	-0.5237785834175227	0.0	0.255586694573536	-0.6331540657847619	0.0	0.1503197486393286	-0.7665362618052592	0.0	0.1711520151041999	-0.8294819991260017	0.0	0.1737980086764406	-0.8215055781548051	0.0	0.12503418183462642	-0.7762861451730875	0.0	0.1598107312476074	-0.3295556490028136	0.0	0.18303451099218143	-0.24954342408428912	0.0	0.20873702104513844	-0.2959310005495069	0.0	0.10132466933118556	-0.34083636948827245	0.0	0.07082555379120606	-0.43466506873024524	0.0	0.15742298732047402	-0.4934068492993496	0.0	0.20745623365711507	-0.3628309117649056	0.0	0.2287503921421839	-0.4489018205182811	0.0	0.2823467983885303	-0.5132599066278121	0.0
25	0.8380681818181819	0.1600827951444775	-0.5136718026945248	0.0	0.13059526247898032	-0.5186846241545083	0.0	0.24365543262956818	-0.6057045398477017	0.0	0.2305777024971639	-0.7631127323263819	0.0	0.2868273163823488	-0.8032627498197777	0.0	0.26364647520171886	-0.8074402216399387	0.0	0.21487927653737401	-0.7868296593527226	0.0	0.18982966977546276	-0.5191213039328691	0.0	0.27357331618727826	-0.6270326373415628	0.0	0.16714799444179557	-0.7601305719711073	0.0	0.18830222722549547	-0.8245164047324564	0.0	0.19056218306996434	-0.8159738451430212	0.0	0.14215725441059754	-0.7685876789514131	0.0	0.17759038229992394	-0.3282171225157048	0.0	0.202165054809603	-0.2472588660458382	0.0	0.22679297879311305	-0.2954201934509588	0.0	0.11964881305533048	-0.3384237848180629	0.0	0.09087863613660314	-0.4324521646788677	0.0	0.17630264531117856	-0.49277975421951287	0.0	0.2242844843802818	-0.3613848047450074	0.0	0.24443987540375503	-0.4474844132715997	0.0	0.2982496408974412	-0.511772488783899	0.0
26	0.8715909090909091	0.17209932933806743	-0.5096398851203005	0.0	0.14293679025090011	-0.5152202352140793	0.0	0.25771323007927593	-0.602742165878823	0.0	0.2604798116426966	-0.7609444518611572	0.0	0.31962076429952124	-0.796416527623255	0.0	0.2971984932923808	-0.8016521569830539	0.0	0.24785711250385237	-0.7855859337942798	0.0	0.20273882818057043	-0.5150017685266934	0.0	0.2887053523522858	-0.6229707373149107	0.0	0.18543404156502183	-0.7564668226226158	0.0	0.20859802013098788	-0.8203544929085882	0.0	0.21030651732135835	-0.811591400878809	0.0	0.16094705748059782	-0.7647488640854704	0.0	0.19374825792673656	-0.32727510178937125	0.0	0.21966817733505975	-0.24554487065541528	0.0	0.2433337540521516	-0.29529971542942557	0.0	0.13628802884938646	-0.33675441394493605	0.0	0.10997719511450879	-0.43118231095471016	0.0	0.19369509228874443	-0.49284334655038914	0.0	0.23964589942844228	-0.36005095342092047	0.0	0.2590299568837869	-0.4464738329991378	0.0	0.31306827775774604	-0.5111934300824441	0.0
27	0.9051136363636364	0.1835912623756167	-0.506059854448709	0.0	0.15470964474407273	-0.5122206276031573	0.0	0.27066054840088155	-0.6010916819228493	0.0	0.28654089413921013	-0.7586135750477374	0.0	0.3481812279114866	-0.7895644385997477	0.0	0.3267912169548508	-0.7957855660603085	0.0	0.2770388661641811	-0.7837307626114273	0.0	0.2151204030447522	-0.5115716103484166	0.0	0.3016507870929351	-0.6203987359209335	0.0	0.2047649964500292	-0.7551194608121758	0.0	0.23132216920527832	-0.8173436582068336	0.0	0.2324735355209622	-0.808675275443427	0.0	0.18085498392785362	-0.7642932912917794	0.0	0.20845152579707985	-0.32662313922674857	0.0	0.23570025325064362	-0.2443837342247729	0.0	0.25852477280620767	-0.2953636019284812	0.0	0.15130777958693847	-0.3355514940887752	0.0	0.1278016516050414	-0.43061251079449614	0.0	0.20984508416199213	-0.49341382754531177	0.0	0.2536952816587701	-0.3588407643523964	0.0	0.2727520651986321	-0.4459138673055395	0.0	0.3269418881718086	-0.5113793219475966	0.0
28	0.9386363636363637	0.19459927504850824	-0.5031341802913603	0.0	0.1658651179688814	-0.50985031561262	0.0	0.28289649063315253	-0.6004648852486079	0.0	0.3091429930621165	-0.7561835590576278	0.0	0.37294059488330417	-0.7826903101265431	0.0	0.35259664614533365	-0.7899673139842123	0.0	0.30258725239907025	-0.7815003867342342	0.0	0.22676451749428314	-0.5090107947199866	0.0	0.31283279222544075	-0.6187595567331567	0.0	0.2245973867459013	-0.75559359171237	0.0	0.25523351279039097	-0.8155748610989274	0.0	0.2560573849877389	-0.8072730618502292	0.0	0.20129399759904168	-0.7664837560282849	0.0	0.22194304426215208	-0.32613399926740455	0.0	0.2504150390241725	-0.24373138367459077	0.0	0.27246773008417646	-0.2954407048016201	0.0	0.16497642224793915	-0.3346281966418172	0.0	0.14436053083152947	-0.4305812008219369	0.0	0.2249747882516064	-0.49436742948983164	0.0	0.2665813292298613	-0.35777975773421844	0.0	0.28574968903802095	-0.44583448132137277	0.0	0.3399216831187275	-0.5121368088192965	0.0
29	0.9721590909090909	0.20508728004727333	-0.5010267557520597	0.0	0.17643259056919974	-0.5082948147498522	0.0	0.29466933398228484	-0.6006206461837923	0.0	0.3287375131763656	-0.7538089417188688	0.0	0.3942982850647788	-0.7759174774700042	0.0	0.37473315013127506	-0.7843847657237782	0.0	0.324700356753182	-0.7790698916140492	0.0	0.23744539727785738	-0.5074573247853637	0.0	0.3223094006777531	-0.6177053263277142	0.0	0.24438362178965	-0.757409152093859	0.0	0.27906186992022974	-0.8147435745090674	0.0	0.27995065319060397	-0.8070257677406771	0.0	0.22173142158698433	-0.7704881055554501	0.0	0.23446896332373665	-0.3256159643382302	0.0	0.2638637134095821	-0.24358156992718563	0.0	0.2852811543574398	-0.2953889463121059	0.0	0.17768116566298334	-0.33392921160454936	0.0	0.15983730910829994	-0.43094208361118663	0.0	0.23924133086374708	-0.4955980229482831	0.0	0.2784086517296925	-0.3568654568778787	0.0	0.2980384662665553	-0.446182860216704	0.0	0.3520015213369818	-0.513196374823056	0.0
30	1.0056818181818181	0.2149987693504588	-0.4997906406953083	0.0	0.18653413889823367	-0.5075778048802089	0.0	0.30609317226206967	-0.6012106905822721	0.0	0.3458066048399692	-0.7516739180933807	0.0	0.41272307228082933	-0.7695566543126569	0.0	0.393616306516718	-0.7792661205725125	0.0	0.34366165860055053	-0.776636623952424	0.0	0.24706933839845124	-0.506866612552187	0.0	0.33011577857394203	-0.6170078381909153	0.0	0.2637740371259415	-0.7600057968002181	0.0	0.3020482175157805	-0.8143089004059411	0.0	0.3033164896849404	-0.8073093666046497	0.0	0.24188330472493086	-0.7753914953923782	0.0	0.2462439481753939	-0.32497109997292883	0.0	0.27620275992340537	-0.24383810226290192	0.0	0.2971518006610827	-0.2951895672222116	0.0	0.18986843773311754	-0.3334356671619978	0.0	0.17447880605371485	-0.43153875475801845	0.0	0.25284059451631186	-0.4970352329869601	0.0	0.2892538774817367	-0.3560888559184647	0.0	0.3095717555081643	-0.4468577517969243	0.0	0.36324073978084526	-0.514347846477831	0.0
